<?xml version="1.0" standalone="no"?>
<!DOCTYPE svg PUBLIC "-//W3C//DTD SVG 20010904//EN"
 "http://www.w3.org/TR/2001/REC-SVG-20010904/DTD/svg10.dtd">
<svg version="1.0" xmlns="http://www.w3.org/2000/svg"
 width="1191.000000pt" height="1280.000000pt" viewBox="0 0 1191.000000 1280.000000"
 preserveAspectRatio="xMidYMid meet">
<g transform="translate(0.000000,1280.000000) scale(0.100000,-0.100000)"
fill="#000000" stroke="none">
<path d="M6299 12796 c-2 -2 -125 -11 -274 -20 -976 -59 -1519 -132 -1910
-256 -328 -105 -941 -398 -1375 -658 -430 -257 -733 -493 -1081 -841 -614
-615 -1041 -1255 -1344 -2011 -99 -248 -239 -689 -286 -900 -32 -147 -34 -183
-14 -247 26 -83 77 -132 198 -194 209 -106 214 -111 266 -288 34 -113 151
-627 151 -661 0 -31 -102 -265 -233 -534 l-111 -229 -4 -93 c-6 -141 29 -268
134 -476 130 -258 263 -453 797 -1165 l339 -452 14 -128 c7 -71 25 -240 39
-378 60 -578 65 -597 165 -705 79 -84 108 -131 187 -302 127 -277 250 -521
303 -600 63 -95 157 -190 375 -385 239 -212 276 -259 315 -402 53 -190 147
-279 305 -288 95 -6 146 6 164 39 17 29 7 84 -73 438 -119 522 -210 1344 -285
2575 -47 756 -60 1073 -67 1620 -7 487 3 795 36 1155 25 267 26 432 5 450 -21
18 -128 7 -185 -18 -109 -48 -174 -122 -210 -239 -10 -34 -33 -147 -50 -250
-66 -402 -101 -449 -358 -473 -181 -16 -238 -16 -258 0 -60 49 -812 725 -826
743 -18 22 -37 140 -143 866 l-35 243 101 192 c248 467 474 826 732 1166 905
1189 2023 1900 3344 2125 252 43 426 56 785 62 482 7 778 -12 1168 -78 645
-109 1211 -324 1725 -657 337 -218 830 -637 1285 -1092 272 -271 372 -386 571
-650 324 -431 328 -446 294 -1041 -16 -265 -35 -443 -55 -518 -13 -48 -49 -97
-184 -251 -133 -151 -549 -567 -605 -605 -41 -28 -50 -30 -130 -29 -93 2 -238
38 -298 75 -69 43 -119 157 -169 388 -44 204 -81 288 -153 354 -42 38 -54 42
-229 83 -126 29 -142 26 -142 -30 0 -75 53 -325 196 -921 l65 -270 24 -385
c21 -322 77 -1227 115 -1850 83 -1342 93 -1760 60 -2350 -11 -186 -9 -485 4
-497 6 -7 176 33 219 51 50 20 108 76 128 121 10 22 25 83 33 135 32 198 70
265 252 445 164 162 223 245 342 485 91 181 142 308 224 552 74 222 119 331
170 410 22 34 45 73 51 87 8 18 13 200 17 586 l5 561 109 199 c60 110 171 308
246 440 377 661 520 955 580 1191 45 176 49 393 9 498 -11 28 -67 119 -125
201 -134 189 -205 299 -247 378 l-32 62 1 265 c1 279 22 485 59 573 23 56 81
114 170 172 87 56 143 112 174 174 27 51 51 121 51 146 1 98 -331 819 -554
1205 -237 410 -596 863 -973 1230 -334 325 -648 561 -1073 805 -324 187 -843
426 -1160 537 -328 114 -967 263 -1320 308 -47 6 -118 15 -158 20 -71 10 -364
14 -373 6z"/>
<path d="M7870 7619 c-197 -16 -392 -68 -533 -141 -133 -69 -249 -221 -313
-408 -44 -128 -19 -608 216 -4085 93 -1374 122 -1805 141 -2080 l12 -160 58
-95 c131 -213 238 -301 428 -352 138 -37 609 -35 796 4 68 14 140 55 180 101
127 148 244 555 284 989 45 476 30 1566 -34 2528 -102 1516 -274 2780 -436
3188 -82 207 -234 393 -378 467 -84 42 -247 59 -421 44z"/>
<path d="M3935 7359 c-122 -18 -199 -55 -291 -141 -37 -35 -84 -89 -105 -121
-262 -403 -292 -1691 -94 -4027 125 -1473 280 -2372 476 -2762 73 -144 188
-237 339 -271 179 -41 232 -45 349 -26 455 74 636 150 737 310 57 91 106 270
135 494 17 128 6 599 -26 1115 -36 599 -157 2407 -210 3155 -104 1452 -129
1680 -199 1838 -84 191 -250 363 -392 407 -36 11 -121 24 -191 30 -148 12
-442 11 -528 -1z"/>
</g>
</svg>
